<svg width="64" height="64" viewBox="0 0 64 64" fill="white" xmlns="http://www.w3.org/2000/svg">
<path d="M6.85715 16C6.85715 14.7376 7.88051 13.7143 9.14286 13.7143H54.8572C56.1195 13.7143 57.1429 14.7376 57.1429 16C57.1429 17.2624 56.1195 18.2857 54.8572 18.2857H9.14286C7.88051 18.2857 6.85715 17.2624 6.85715 16Z" />
<path d="M6.85715 32C6.85715 30.7376 7.88051 29.7143 9.14286 29.7143H54.8572C56.1195 29.7143 57.1429 30.7376 57.1429 32C57.1429 33.2624 56.1195 34.2857 54.8572 34.2857H9.14286C7.88051 34.2857 6.85715 33.2624 6.85715 32Z" />
<path d="M9.14286 45.7143C7.88051 45.7143 6.85715 46.7376 6.85715 48C6.85715 49.2624 7.88051 50.2857 9.14286 50.2857H54.8572C56.1195 50.2857 57.1429 49.2624 57.1429 48C57.1429 46.7376 56.1195 45.7143 54.8572 45.7143H9.14286Z"/>
</svg>
