<svg width="32" height="32" viewBox="0 0 32 32" fill="#0057A8" xmlns="http://www.w3.org/2000/svg">
<g clip-path="url(#clip0_2_16)">
<path d="M17.5685 0C9.61115 0 3.13727 6.47387 3.13727 14.4312C3.13727 17.2512 3.95096 19.8844 5.35496 22.1096L0.939084 26.5254C-0.313354 27.7779 -0.313354 29.8084 0.939084 31.0607C2.19152 32.3131 4.22202 32.3131 5.47433 31.0607L9.89021 26.6448C12.1155 28.0488 14.7486 28.8625 17.5685 28.8625C25.5259 28.8625 31.9998 22.3886 31.9998 14.4312C31.9998 6.47387 25.526 0 17.5685 0ZM17.5685 25.6556C11.3795 25.6556 6.34421 20.6203 6.34421 14.4312C6.34421 8.24219 11.3794 3.20694 17.5685 3.20694C23.7576 3.20694 28.7928 8.24219 28.7928 14.4312C28.7928 20.6203 23.7577 25.6556 17.5685 25.6556Z"/>
</g>
</svg>
