<svg width="38" height="32" viewBox="0 0 38 32" fill="#0057A8" xmlns="http://www.w3.org/2000/svg">
<path d="M22.6062 26C22.6062 26.7956 22.2378 27.5587 21.5821 28.1213C20.9264 28.6839 20.0371 29 19.1097 29C18.1824 29 17.2931 28.6839 16.6373 28.1213C15.9816 27.5587 15.6133 26.7956 15.6133 26C15.6133 25.2044 15.9816 24.4413 16.6373 23.8787C17.2931 23.3161 18.1824 23 19.1097 23C20.0371 23 20.9264 23.3161 21.5821 23.8787C22.2378 24.4413 22.6062 25.2044 22.6062 26ZM22.6062 16C22.6062 16.7956 22.2378 17.5587 21.5821 18.1213C20.9264 18.6839 20.0371 19 19.1097 19C18.1824 19 17.2931 18.6839 16.6373 18.1213C15.9816 17.5587 15.6133 16.7956 15.6133 16C15.6133 15.2044 15.9816 14.4413 16.6373 13.8787C17.2931 13.3161 18.1824 13 19.1097 13C20.0371 13 20.9264 13.3161 21.5821 13.8787C22.2378 14.4413 22.6062 15.2044 22.6062 16ZM22.6062 6C22.6062 6.79565 22.2378 7.55871 21.5821 8.12132C20.9264 8.68393 20.0371 9 19.1097 9C18.1824 9 17.2931 8.68393 16.6373 8.12132C15.9816 7.55871 15.6133 6.79565 15.6133 6C15.6133 5.20435 15.9816 4.44129 16.6373 3.87868C17.2931 3.31607 18.1824 3 19.1097 3C20.0371 3 20.9264 3.31607 21.5821 3.87868C22.2378 4.44129 22.6062 5.20435 22.6062 6Z" />
</svg>
